<svg xmlns="http://www.w3.org/2000/svg" xmlns:xlink="http://www.w3.org/1999/xlink" width="500" zoomAndPan="magnify" viewBox="0 0 375 374.999991" height="500" preserveAspectRatio="xMidYMid meet" version="1.0"><defs><filter x="0%" y="0%" width="100%" height="100%" id="3d21b605ab"><feColorMatrix values="0 0 0 0 1 0 0 0 0 1 0 0 0 0 1 0 0 0 1 0" color-interpolation-filters="sRGB"/></filter><clipPath id="888b662308"><path d="M 74 15 L 357 15 L 357 324 L 74 324 Z M 74 15 " clip-rule="nonzero"/></clipPath><clipPath id="6cb478d6f3"><path d="M 413.246094 122.363281 L 285.46875 429.058594 L -23.304688 300.414062 L 104.472656 -6.28125 Z M 413.246094 122.363281 " clip-rule="nonzero"/></clipPath><clipPath id="e5112d5be9"><path d="M 413.246094 122.363281 L 285.46875 429.058594 L -23.304688 300.414062 L 104.472656 -6.28125 Z M 413.246094 122.363281 " clip-rule="nonzero"/></clipPath><clipPath id="6970ecc1ea"><path d="M 146 16 L 258 16 L 258 183 L 146 183 Z M 146 16 " clip-rule="nonzero"/></clipPath><clipPath id="b2e1f1282c"><path d="M 413.246094 122.363281 L 285.46875 429.058594 L -23.304688 300.414062 L 104.472656 -6.28125 Z M 413.246094 122.363281 " clip-rule="nonzero"/></clipPath><clipPath id="3ad11f705e"><path d="M 413.246094 122.363281 L 285.46875 429.058594 L -23.304688 300.414062 L 104.472656 -6.28125 Z M 413.246094 122.363281 " clip-rule="nonzero"/></clipPath><clipPath id="b612063c70"><path d="M 2 14 L 242 14 L 242 350 L 2 350 Z M 2 14 " clip-rule="nonzero"/></clipPath><clipPath id="cf754afbc3"><path d="M 413.246094 122.363281 L 285.46875 429.058594 L -23.304688 300.414062 L 104.472656 -6.28125 Z M 413.246094 122.363281 " clip-rule="nonzero"/></clipPath><clipPath id="58ee1441ee"><path d="M 413.246094 122.363281 L 285.46875 429.058594 L -23.304688 300.414062 L 104.472656 -6.28125 Z M 413.246094 122.363281 " clip-rule="nonzero"/></clipPath><clipPath id="f7aa0b7542"><path d="M 144 242 L 238 242 L 238 330 L 144 330 Z M 144 242 " clip-rule="nonzero"/></clipPath><clipPath id="ffd5623bb1"><path d="M 413.246094 122.363281 L 285.46875 429.058594 L -23.304688 300.414062 L 104.472656 -6.28125 Z M 413.246094 122.363281 " clip-rule="nonzero"/></clipPath><clipPath id="f5634f018f"><path d="M 413.246094 122.363281 L 285.46875 429.058594 L -23.304688 300.414062 L 104.472656 -6.28125 Z M 413.246094 122.363281 " clip-rule="nonzero"/></clipPath><clipPath id="fdec1c8122"><path d="M 147 248 L 237 248 L 237 324 L 147 324 Z M 147 248 " clip-rule="nonzero"/></clipPath><clipPath id="d264b1bf00"><path d="M 413.246094 122.363281 L 285.46875 429.058594 L -23.304688 300.414062 L 104.472656 -6.28125 Z M 413.246094 122.363281 " clip-rule="nonzero"/></clipPath><clipPath id="c1c7f1a8c5"><path d="M 413.246094 122.363281 L 285.46875 429.058594 L -23.304688 300.414062 L 104.472656 -6.28125 Z M 413.246094 122.363281 " clip-rule="nonzero"/></clipPath><clipPath id="e97c47f1ef"><path d="M 147 79 L 375 79 L 375 372 L 147 372 Z M 147 79 " clip-rule="nonzero"/></clipPath><clipPath id="54940d6794"><path d="M 413.246094 122.363281 L 285.46875 429.058594 L -23.304688 300.414062 L 104.472656 -6.28125 Z M 413.246094 122.363281 " clip-rule="nonzero"/></clipPath><clipPath id="8af26a2922"><path d="M 413.246094 122.363281 L 285.46875 429.058594 L -23.304688 300.414062 L 104.472656 -6.28125 Z M 413.246094 122.363281 " clip-rule="nonzero"/></clipPath><mask id="9baef15d41"><g filter="url(#3d21b605ab)"><rect x="-37.5" width="450" fill="#000000" y="-37.499999" height="449.999989" fill-opacity="0.3"/></g></mask><clipPath id="162b840678"><path d="M 13 3 L 205 3 L 205 239 L 13 239 Z M 13 3 " clip-rule="nonzero"/></clipPath><clipPath id="3fa5145bc6"><path d="M 266.246094 43.363281 L 138.46875 350.058594 L -170.304688 221.414062 L -42.527344 -85.28125 Z M 266.246094 43.363281 " clip-rule="nonzero"/></clipPath><clipPath id="df38cb5ba4"><path d="M 266.246094 43.363281 L 138.46875 350.058594 L -170.304688 221.414062 L -42.527344 -85.28125 Z M 266.246094 43.363281 " clip-rule="nonzero"/></clipPath><clipPath id="451ed02dc4"><rect x="0" width="228" y="0" height="293"/></clipPath><clipPath id="84626dada7"><path d="M 255 104 L 348 104 L 348 302 L 255 302 Z M 255 104 " clip-rule="nonzero"/></clipPath><clipPath id="a16be8f77f"><path d="M 413.246094 122.363281 L 285.46875 429.058594 L -23.304688 300.414062 L 104.472656 -6.28125 Z M 413.246094 122.363281 " clip-rule="nonzero"/></clipPath><clipPath id="f1be84a6ce"><path d="M 413.246094 122.363281 L 285.46875 429.058594 L -23.304688 300.414062 L 104.472656 -6.28125 Z M 413.246094 122.363281 " clip-rule="nonzero"/></clipPath><clipPath id="c48f8001fd"><path d="M 138 224 L 194 224 L 194 250 L 138 250 Z M 138 224 " clip-rule="nonzero"/></clipPath><clipPath id="54057f5025"><path d="M 413.246094 122.363281 L 285.46875 429.058594 L -23.304688 300.414062 L 104.472656 -6.28125 Z M 413.246094 122.363281 " clip-rule="nonzero"/></clipPath><clipPath id="920e660abe"><path d="M 413.246094 122.363281 L 285.46875 429.058594 L -23.304688 300.414062 L 104.472656 -6.28125 Z M 413.246094 122.363281 " clip-rule="nonzero"/></clipPath><mask id="13184ef20e"><g filter="url(#3d21b605ab)"><rect x="-37.5" width="450" fill="#000000" y="-37.499999" height="449.999989" fill-opacity="0.8"/></g></mask><clipPath id="e2224af9a0"><path d="M 1 0.398438 L 55 0.398438 L 55 25 L 1 25 Z M 1 0.398438 " clip-rule="nonzero"/></clipPath><clipPath id="31baf361f6"><path d="M 275.246094 -101.636719 L 147.46875 205.058594 L -161.304688 76.414062 L -33.527344 -230.28125 Z M 275.246094 -101.636719 " clip-rule="nonzero"/></clipPath><clipPath id="a2ca69a6d5"><path d="M 275.246094 -101.636719 L 147.46875 205.058594 L -161.304688 76.414062 L -33.527344 -230.28125 Z M 275.246094 -101.636719 " clip-rule="nonzero"/></clipPath><clipPath id="61c8ca4f95"><rect x="0" width="56" y="0" height="26"/></clipPath><clipPath id="cfd5c98191"><path d="M 192 240 L 236 240 L 236 266 L 192 266 Z M 192 240 " clip-rule="nonzero"/></clipPath><clipPath id="6c76f225dd"><path d="M 413.246094 122.363281 L 285.46875 429.058594 L -23.304688 300.414062 L 104.472656 -6.28125 Z M 413.246094 122.363281 " clip-rule="nonzero"/></clipPath><clipPath id="bfa1a27b2c"><path d="M 413.246094 122.363281 L 285.46875 429.058594 L -23.304688 300.414062 L 104.472656 -6.28125 Z M 413.246094 122.363281 " clip-rule="nonzero"/></clipPath><mask id="b87f9088ee"><g filter="url(#3d21b605ab)"><rect x="-37.5" width="450" fill="#000000" y="-37.499999" height="449.999989" fill-opacity="0.8"/></g></mask><clipPath id="8dcc20a2ca"><path d="M 0.238281 8 L 43.921875 8 L 43.921875 19 L 0.238281 19 Z M 0.238281 8 " clip-rule="nonzero"/></clipPath><clipPath id="ec8880610f"><path d="M 221.246094 -117.636719 L 93.46875 189.058594 L -215.304688 60.414062 L -87.527344 -246.28125 Z M 221.246094 -117.636719 " clip-rule="nonzero"/></clipPath><clipPath id="16e821e7a7"><path d="M 221.246094 -117.636719 L 93.46875 189.058594 L -215.304688 60.414062 L -87.527344 -246.28125 Z M 221.246094 -117.636719 " clip-rule="nonzero"/></clipPath><clipPath id="443ef39640"><rect x="0" width="44" y="0" height="26"/></clipPath><clipPath id="a1510e9c0a"><path d="M 61 90 L 350 90 L 350 372 L 61 372 Z M 61 90 " clip-rule="nonzero"/></clipPath><clipPath id="1225c9a8a0"><path d="M 413.246094 122.363281 L 285.46875 429.058594 L -23.304688 300.414062 L 104.472656 -6.28125 Z M 413.246094 122.363281 " clip-rule="nonzero"/></clipPath><clipPath id="67b898d5e8"><path d="M 413.246094 122.363281 L 285.46875 429.058594 L -23.304688 300.414062 L 104.472656 -6.28125 Z M 413.246094 122.363281 " clip-rule="nonzero"/></clipPath><mask id="20f92d4d7b"><g filter="url(#3d21b605ab)"><rect x="-37.5" width="450" fill="#000000" y="-37.499999" height="449.999989" fill-opacity="0.8"/></g></mask><clipPath id="32813046e1"><path d="M 13 43 L 259 43 L 259 234 L 13 234 Z M 13 43 " clip-rule="nonzero"/></clipPath><clipPath id="e25e2b4688"><path d="M 352.246094 32.363281 L 224.46875 339.058594 L -84.304688 210.414062 L 43.472656 -96.28125 Z M 352.246094 32.363281 " clip-rule="nonzero"/></clipPath><clipPath id="4c21879928"><path d="M 352.246094 32.363281 L 224.46875 339.058594 L -84.304688 210.414062 L 43.472656 -96.28125 Z M 352.246094 32.363281 " clip-rule="nonzero"/></clipPath><clipPath id="8ef0838b6b"><rect x="0" width="289" y="0" height="282"/></clipPath><clipPath id="c4a264641c"><path d="M 67 20 L 276 20 L 276 248 L 67 248 Z M 67 20 " clip-rule="nonzero"/></clipPath><clipPath id="d42de80e82"><path d="M 413.246094 122.363281 L 285.46875 429.058594 L -23.304688 300.414062 L 104.472656 -6.28125 Z M 413.246094 122.363281 " clip-rule="nonzero"/></clipPath><clipPath id="f487448df8"><path d="M 413.246094 122.363281 L 285.46875 429.058594 L -23.304688 300.414062 L 104.472656 -6.28125 Z M 413.246094 122.363281 " clip-rule="nonzero"/></clipPath><mask id="739a869bfd"><g filter="url(#3d21b605ab)"><rect x="-37.5" width="450" fill="#000000" y="-37.499999" height="449.999989" fill-opacity="0.4"/></g></mask><clipPath id="539ba4a1c3"><path d="M 58 10 L 150 10 L 150 226 L 58 226 Z M 58 10 " clip-rule="nonzero"/></clipPath><clipPath id="cb167918a5"><path d="M 346.246094 102.363281 L 218.46875 409.058594 L -90.304688 280.414062 L 37.472656 -26.28125 Z M 346.246094 102.363281 " clip-rule="nonzero"/></clipPath><clipPath id="3515aa6c37"><path d="M 346.246094 102.363281 L 218.46875 409.058594 L -90.304688 280.414062 L 37.472656 -26.28125 Z M 346.246094 102.363281 " clip-rule="nonzero"/></clipPath><clipPath id="7717a5a767"><rect x="0" width="209" y="0" height="228"/></clipPath><clipPath id="8088db8569"><path d="M 192 242 L 194 242 L 194 244 L 192 244 Z M 192 242 " clip-rule="nonzero"/></clipPath><clipPath id="aad549f578"><path d="M 413.246094 122.363281 L 285.46875 429.058594 L -23.304688 300.414062 L 104.472656 -6.28125 Z M 413.246094 122.363281 " clip-rule="nonzero"/></clipPath><clipPath id="57fa6aa70c"><path d="M 413.246094 122.363281 L 285.46875 429.058594 L -23.304688 300.414062 L 104.472656 -6.28125 Z M 413.246094 122.363281 " clip-rule="nonzero"/></clipPath><mask id="23d7b3842a"><g filter="url(#3d21b605ab)"><rect x="-37.5" width="450" fill="#000000" y="-37.499999" height="449.999989" fill-opacity="0.8"/></g></mask><clipPath id="bdca26d486"><path d="M 1 0.398438 L 1.921875 0.398438 L 1.921875 1 L 1 1 Z M 1 0.398438 " clip-rule="nonzero"/></clipPath><clipPath id="889236e423"><path d="M 221.246094 -119.636719 L 93.46875 187.058594 L -215.304688 58.414062 L -87.527344 -248.28125 Z M 221.246094 -119.636719 " clip-rule="nonzero"/></clipPath><clipPath id="17d46ca350"><path d="M 221.246094 -119.636719 L 93.46875 187.058594 L -215.304688 58.414062 L -87.527344 -248.28125 Z M 221.246094 -119.636719 " clip-rule="nonzero"/></clipPath><clipPath id="371c5e61ba"><rect x="0" width="2" y="0" height="2"/></clipPath><clipPath id="e46ad59b12"><path d="M 101 16 L 168 16 L 168 140 L 101 140 Z M 101 16 " clip-rule="nonzero"/></clipPath><clipPath id="ad3811882d"><path d="M 413.246094 122.363281 L 285.46875 429.058594 L -23.304688 300.414062 L 104.472656 -6.28125 Z M 413.246094 122.363281 " clip-rule="nonzero"/></clipPath><clipPath id="a670cd64fe"><path d="M 413.246094 122.363281 L 285.46875 429.058594 L -23.304688 300.414062 L 104.472656 -6.28125 Z M 413.246094 122.363281 " clip-rule="nonzero"/></clipPath><clipPath id="5d505df93e"><path d="M 159 21 L 199 21 L 199 49 L 159 49 Z M 159 21 " clip-rule="nonzero"/></clipPath><clipPath id="28bc67d7cc"><path d="M 413.246094 122.363281 L 285.46875 429.058594 L -23.304688 300.414062 L 104.472656 -6.28125 Z M 413.246094 122.363281 " clip-rule="nonzero"/></clipPath><clipPath id="eb39964813"><path d="M 413.246094 122.363281 L 285.46875 429.058594 L -23.304688 300.414062 L 104.472656 -6.28125 Z M 413.246094 122.363281 " clip-rule="nonzero"/></clipPath><mask id="a22b488fbd"><g filter="url(#3d21b605ab)"><rect x="-37.5" width="450" fill="#000000" y="-37.499999" height="449.999989" fill-opacity="0.8"/></g></mask><clipPath id="6a4a64e622"><path d="M 5 0.121094 L 35 0.121094 L 35 27 L 5 27 Z M 5 0.121094 " clip-rule="nonzero"/></clipPath><clipPath id="450cd10648"><path d="M 254.246094 101.363281 L 126.46875 408.058594 L -182.304688 279.414062 L -54.527344 -27.28125 Z M 254.246094 101.363281 " clip-rule="nonzero"/></clipPath><clipPath id="cd5c77c1a5"><path d="M 254.246094 101.363281 L 126.46875 408.058594 L -182.304688 279.414062 L -54.527344 -27.28125 Z M 254.246094 101.363281 " clip-rule="nonzero"/></clipPath><clipPath id="1be46d15ce"><rect x="0" width="40" y="0" height="28"/></clipPath><clipPath id="b9c1bbe54e"><path d="M 65 0 L 242 0 L 242 182 L 65 182 Z M 65 0 " clip-rule="nonzero"/></clipPath><clipPath id="e6ac6cce95"><path d="M 413.246094 122.363281 L 285.46875 429.058594 L -23.304688 300.414062 L 104.472656 -6.28125 Z M 413.246094 122.363281 " clip-rule="nonzero"/></clipPath><clipPath id="2c6e6d8658"><path d="M 413.246094 122.363281 L 285.46875 429.058594 L -23.304688 300.414062 L 104.472656 -6.28125 Z M 413.246094 122.363281 " clip-rule="nonzero"/></clipPath><mask id="35e2710a9d"><g filter="url(#3d21b605ab)"><rect x="-37.5" width="450" fill="#000000" y="-37.499999" height="449.999989" fill-opacity="0.8"/></g></mask><clipPath id="69f483f341"><path d="M 36 14 L 130 14 L 130 181.921875 L 36 181.921875 Z M 36 14 " clip-rule="nonzero"/></clipPath><clipPath id="8f1fc1fa5a"><path d="M 348.246094 122.363281 L 220.46875 429.058594 L -88.304688 300.414062 L 39.472656 -6.28125 Z M 348.246094 122.363281 " clip-rule="nonzero"/></clipPath><clipPath id="58d2ed3bac"><path d="M 348.246094 122.363281 L 220.46875 429.058594 L -88.304688 300.414062 L 39.472656 -6.28125 Z M 348.246094 122.363281 " clip-rule="nonzero"/></clipPath><clipPath id="1463cf9760"><rect x="0" width="177" y="0" height="182"/></clipPath><clipPath id="22326a2cea"><path d="M 105 50 L 290 50 L 290 248 L 105 248 Z M 105 50 " clip-rule="nonzero"/></clipPath><clipPath id="6a5a344d50"><path d="M 413.246094 122.363281 L 285.46875 429.058594 L -23.304688 300.414062 L 104.472656 -6.28125 Z M 413.246094 122.363281 " clip-rule="nonzero"/></clipPath><clipPath id="9e2bfab81b"><path d="M 413.246094 122.363281 L 285.46875 429.058594 L -23.304688 300.414062 L 104.472656 -6.28125 Z M 413.246094 122.363281 " clip-rule="nonzero"/></clipPath><mask id="9230797599"><g filter="url(#3d21b605ab)"><rect x="-37.5" width="450" fill="#000000" y="-37.499999" height="449.999989" fill-opacity="0.3"/></g></mask><clipPath id="0a070870e3"><path d="M 54 4 L 133 4 L 133 196 L 54 196 Z M 54 4 " clip-rule="nonzero"/></clipPath><clipPath id="fbd83f30eb"><path d="M 308.246094 72.363281 L 180.46875 379.058594 L -128.304688 250.414062 L -0.527344 -56.28125 Z M 308.246094 72.363281 " clip-rule="nonzero"/></clipPath><clipPath id="f75d48430d"><path d="M 308.246094 72.363281 L 180.46875 379.058594 L -128.304688 250.414062 L -0.527344 -56.28125 Z M 308.246094 72.363281 " clip-rule="nonzero"/></clipPath><clipPath id="f529db1fc6"><rect x="0" width="185" y="0" height="198"/></clipPath><clipPath id="16b283e046"><path d="M 114 58 L 285 58 L 285 242 L 114 242 Z M 114 58 " clip-rule="nonzero"/></clipPath><clipPath id="60fa0e9102"><path d="M 413.246094 122.363281 L 285.46875 429.058594 L -23.304688 300.414062 L 104.472656 -6.28125 Z M 413.246094 122.363281 " clip-rule="nonzero"/></clipPath><clipPath id="282fdf001f"><path d="M 413.246094 122.363281 L 285.46875 429.058594 L -23.304688 300.414062 L 104.472656 -6.28125 Z M 413.246094 122.363281 " clip-rule="nonzero"/></clipPath><mask id="1906ca9207"><g filter="url(#3d21b605ab)"><rect x="-37.5" width="450" fill="#000000" y="-37.499999" height="449.999989" fill-opacity="0.4"/></g></mask><clipPath id="2fcf915ff1"><path d="M 53 2 L 121 2 L 121 183 L 53 183 Z M 53 2 " clip-rule="nonzero"/></clipPath><clipPath id="bd40bef1af"><path d="M 299.246094 64.363281 L 171.46875 371.058594 L -137.304688 242.414062 L -9.527344 -64.28125 Z M 299.246094 64.363281 " clip-rule="nonzero"/></clipPath><clipPath id="24a3c59acc"><path d="M 299.246094 64.363281 L 171.46875 371.058594 L -137.304688 242.414062 L -9.527344 -64.28125 Z M 299.246094 64.363281 " clip-rule="nonzero"/></clipPath><clipPath id="7e90e35d22"><rect x="0" width="171" y="0" height="184"/></clipPath><clipPath id="84aa6603ea"><path d="M 96 229 L 237 229 L 237 331 L 96 331 Z M 96 229 " clip-rule="nonzero"/></clipPath><clipPath id="b13208131f"><path d="M 413.246094 122.363281 L 285.46875 429.058594 L -23.304688 300.414062 L 104.472656 -6.28125 Z M 413.246094 122.363281 " clip-rule="nonzero"/></clipPath><clipPath id="6430576c7e"><path d="M 413.246094 122.363281 L 285.46875 429.058594 L -23.304688 300.414062 L 104.472656 -6.28125 Z M 413.246094 122.363281 " clip-rule="nonzero"/></clipPath><mask id="b48a197752"><g filter="url(#3d21b605ab)"><rect x="-37.5" width="450" fill="#000000" y="-37.499999" height="449.999989" fill-opacity="0.3"/></g></mask><clipPath id="6e18c2e360"><path d="M 9 10 L 137 10 L 137 73 L 9 73 Z M 9 10 " clip-rule="nonzero"/></clipPath><clipPath id="5c7d4cd48c"><path d="M 317.246094 -106.636719 L 189.46875 200.058594 L -119.304688 71.414062 L 8.472656 -235.28125 Z M 317.246094 -106.636719 " clip-rule="nonzero"/></clipPath><clipPath id="29fafbd472"><path d="M 317.246094 -106.636719 L 189.46875 200.058594 L -119.304688 71.414062 L 8.472656 -235.28125 Z M 317.246094 -106.636719 " clip-rule="nonzero"/></clipPath><clipPath id="d00b2f105b"><rect x="0" width="141" y="0" height="102"/></clipPath><clipPath id="61877fb59a"><path d="M 104 246 L 185 246 L 185 307 L 104 307 Z M 104 246 " clip-rule="nonzero"/></clipPath><clipPath id="04e2f9646a"><path d="M 413.246094 122.363281 L 285.46875 429.058594 L -23.304688 300.414062 L 104.472656 -6.28125 Z M 413.246094 122.363281 " clip-rule="nonzero"/></clipPath><clipPath id="b92fb1db26"><path d="M 413.246094 122.363281 L 285.46875 429.058594 L -23.304688 300.414062 L 104.472656 -6.28125 Z M 413.246094 122.363281 " clip-rule="nonzero"/></clipPath><mask id="e82502ffa7"><g filter="url(#3d21b605ab)"><rect x="-37.5" width="450" fill="#000000" y="-37.499999" height="449.999989" fill-opacity="0.5"/></g></mask><clipPath id="6bc64d7c03"><path d="M 8 3 L 74 3 L 74 51 L 8 51 Z M 8 3 " clip-rule="nonzero"/></clipPath><clipPath id="05b61d9066"><path d="M 309.246094 -123.636719 L 181.46875 183.058594 L -127.304688 54.414062 L 0.472656 -252.28125 Z M 309.246094 -123.636719 " clip-rule="nonzero"/></clipPath><clipPath id="4cdad6878a"><path d="M 309.246094 -123.636719 L 181.46875 183.058594 L -127.304688 54.414062 L 0.472656 -252.28125 Z M 309.246094 -123.636719 " clip-rule="nonzero"/></clipPath><clipPath id="9cb7c7098f"><rect x="0" width="81" y="0" height="61"/></clipPath><clipPath id="22424291e9"><path d="M 3 203 L 42 203 L 42 239 L 3 239 Z M 3 203 " clip-rule="nonzero"/></clipPath><clipPath id="334d5ab020"><path d="M 413.246094 122.363281 L 285.46875 429.058594 L -23.304688 300.414062 L 104.472656 -6.28125 Z M 413.246094 122.363281 " clip-rule="nonzero"/></clipPath><clipPath id="2122e2f8e5"><path d="M 413.246094 122.363281 L 285.46875 429.058594 L -23.304688 300.414062 L 104.472656 -6.28125 Z M 413.246094 122.363281 " clip-rule="nonzero"/></clipPath><clipPath id="a94bfd4d4b"><path d="M 0 198 L 118 198 L 118 342 L 0 342 Z M 0 198 " clip-rule="nonzero"/></clipPath><clipPath id="5d85fe22f8"><path d="M 413.246094 122.363281 L 285.46875 429.058594 L -23.304688 300.414062 L 104.472656 -6.28125 Z M 413.246094 122.363281 " clip-rule="nonzero"/></clipPath><clipPath id="3a43276f65"><path d="M 413.246094 122.363281 L 285.46875 429.058594 L -23.304688 300.414062 L 104.472656 -6.28125 Z M 413.246094 122.363281 " clip-rule="nonzero"/></clipPath><mask id="fde79372b0"><g filter="url(#3d21b605ab)"><rect x="-37.5" width="450" fill="#000000" y="-37.499999" height="449.999989" fill-opacity="0.4"/></g></mask><clipPath id="56df8ab514"><path d="M 13 6 L 74 6 L 74 143 L 13 143 Z M 13 6 " clip-rule="nonzero"/></clipPath><clipPath id="6aabd6c06d"><path d="M 413.246094 -75.636719 L 285.46875 231.058594 L -23.304688 102.414062 L 104.472656 -204.28125 Z M 413.246094 -75.636719 " clip-rule="nonzero"/></clipPath><clipPath id="03d0689b17"><path d="M 413.246094 -75.636719 L 285.46875 231.058594 L -23.304688 102.414062 L 104.472656 -204.28125 Z M 413.246094 -75.636719 " clip-rule="nonzero"/></clipPath><clipPath id="3d8fe79435"><rect x="0" width="118" y="0" height="144"/></clipPath><clipPath id="3cef9c0a50"><path d="M 57 209 L 67 209 L 67 216 L 57 216 Z M 57 209 " clip-rule="nonzero"/></clipPath><clipPath id="dcaf9ee09f"><path d="M 413.246094 122.363281 L 285.46875 429.058594 L -23.304688 300.414062 L 104.472656 -6.28125 Z M 413.246094 122.363281 " clip-rule="nonzero"/></clipPath><clipPath id="f1794e5b61"><path d="M 413.246094 122.363281 L 285.46875 429.058594 L -23.304688 300.414062 L 104.472656 -6.28125 Z M 413.246094 122.363281 " clip-rule="nonzero"/></clipPath><clipPath id="2e77fcb269"><path d="M 0 193 L 85 193 L 85 323 L 0 323 Z M 0 193 " clip-rule="nonzero"/></clipPath><clipPath id="2f115beffc"><path d="M 413.246094 122.363281 L 285.46875 429.058594 L -23.304688 300.414062 L 104.472656 -6.28125 Z M 413.246094 122.363281 " clip-rule="nonzero"/></clipPath><clipPath id="d87b689b2f"><path d="M 413.246094 122.363281 L 285.46875 429.058594 L -23.304688 300.414062 L 104.472656 -6.28125 Z M 413.246094 122.363281 " clip-rule="nonzero"/></clipPath><mask id="0fa163f563"><g filter="url(#3d21b605ab)"><rect x="-37.5" width="450" fill="#000000" y="-37.499999" height="449.999989" fill-opacity="0.8"/></g></mask><clipPath id="796047c529"><path d="M 2 11 L 68 11 L 68 129.558594 L 2 129.558594 Z M 2 11 " clip-rule="nonzero"/></clipPath><clipPath id="8b879f0a27"><path d="M 413.246094 -70.636719 L 285.46875 236.058594 L -23.304688 107.414062 L 104.472656 -199.28125 Z M 413.246094 -70.636719 " clip-rule="nonzero"/></clipPath><clipPath id="03c4535a69"><path d="M 413.246094 -70.636719 L 285.46875 236.058594 L -23.304688 107.414062 L 104.472656 -199.28125 Z M 413.246094 -70.636719 " clip-rule="nonzero"/></clipPath><clipPath id="b1dd16542c"><rect x="0" width="85" y="0" height="130"/></clipPath><clipPath id="c019573954"><path d="M 15 224 L 72 224 L 72 309 L 15 309 Z M 15 224 " clip-rule="nonzero"/></clipPath><clipPath id="c7efa0870a"><path d="M 413.246094 122.363281 L 285.46875 429.058594 L -23.304688 300.414062 L 104.472656 -6.28125 Z M 413.246094 122.363281 " clip-rule="nonzero"/></clipPath><clipPath id="6884a3ba9e"><path d="M 413.246094 122.363281 L 285.46875 429.058594 L -23.304688 300.414062 L 104.472656 -6.28125 Z M 413.246094 122.363281 " clip-rule="nonzero"/></clipPath><mask id="eba0219537"><g filter="url(#3d21b605ab)"><rect x="-37.5" width="450" fill="#000000" y="-37.499999" height="449.999989" fill-opacity="0.3"/></g></mask><clipPath id="e15016be1f"><path d="M 15 6 L 53 6 L 53 84.878906 L 15 84.878906 Z M 15 6 " clip-rule="nonzero"/></clipPath><clipPath id="2e157954ab"><path d="M 398.246094 -101.636719 L 270.46875 205.058594 L -38.304688 76.414062 L 89.472656 -230.28125 Z M 398.246094 -101.636719 " clip-rule="nonzero"/></clipPath><clipPath id="1081dc2af9"><path d="M 398.246094 -101.636719 L 270.46875 205.058594 L -38.304688 76.414062 L 89.472656 -230.28125 Z M 398.246094 -101.636719 " clip-rule="nonzero"/></clipPath><clipPath id="d75c5a8669"><rect x="0" width="57" y="0" height="85"/></clipPath><clipPath id="78c3e519e3"><path d="M 35 234 L 63 234 L 63 271 L 35 271 Z M 35 234 " clip-rule="nonzero"/></clipPath><clipPath id="ae5a5ab1b3"><path d="M 413.246094 122.363281 L 285.46875 429.058594 L -23.304688 300.414062 L 104.472656 -6.28125 Z M 413.246094 122.363281 " clip-rule="nonzero"/></clipPath><clipPath id="1f79e510be"><path d="M 413.246094 122.363281 L 285.46875 429.058594 L -23.304688 300.414062 L 104.472656 -6.28125 Z M 413.246094 122.363281 " clip-rule="nonzero"/></clipPath><mask id="4310687ced"><g filter="url(#3d21b605ab)"><rect x="-37.5" width="450" fill="#000000" y="-37.499999" height="449.999989" fill-opacity="0.5"/></g></mask><clipPath id="db993e73a3"><path d="M 4 3 L 26 3 L 26 33 L 4 33 Z M 4 3 " clip-rule="nonzero"/></clipPath><clipPath id="99182ad837"><path d="M 378.246094 -111.636719 L 250.46875 195.058594 L -58.304688 66.414062 L 69.472656 -240.28125 Z M 378.246094 -111.636719 " clip-rule="nonzero"/></clipPath><clipPath id="64c2df4439"><path d="M 378.246094 -111.636719 L 250.46875 195.058594 L -58.304688 66.414062 L 69.472656 -240.28125 Z M 378.246094 -111.636719 " clip-rule="nonzero"/></clipPath><clipPath id="458a714f36"><rect x="0" width="28" y="0" height="37"/></clipPath><clipPath id="1ebef9e4c2"><path d="M 70 291 L 166 291 L 166 366 L 70 366 Z M 70 291 " clip-rule="nonzero"/></clipPath><clipPath id="3908ac5010"><path d="M 413.246094 122.363281 L 285.46875 429.058594 L -23.304688 300.414062 L 104.472656 -6.28125 Z M 413.246094 122.363281 " clip-rule="nonzero"/></clipPath><clipPath id="c5b9dff36a"><path d="M 413.246094 122.363281 L 285.46875 429.058594 L -23.304688 300.414062 L 104.472656 -6.28125 Z M 413.246094 122.363281 " clip-rule="nonzero"/></clipPath><mask id="65944decc4"><g filter="url(#3d21b605ab)"><rect x="-37.5" width="450" fill="#000000" y="-37.499999" height="449.999989" fill-opacity="0.8"/></g></mask><clipPath id="8033a869f0"><path d="M 1 29 L 95.359375 29 L 95.359375 51 L 1 51 Z M 1 29 " clip-rule="nonzero"/></clipPath><clipPath id="00547e8e3a"><path d="M 343.246094 -168.636719 L 215.46875 138.058594 L -93.304688 9.414062 L 34.472656 -297.28125 Z M 343.246094 -168.636719 " clip-rule="nonzero"/></clipPath><clipPath id="5db9fe5d8f"><path d="M 343.246094 -168.636719 L 215.46875 138.058594 L -93.304688 9.414062 L 34.472656 -297.28125 Z M 343.246094 -168.636719 " clip-rule="nonzero"/></clipPath><clipPath id="35ae2175c0"><rect x="0" width="96" y="0" height="75"/></clipPath><clipPath id="20dfa6578e"><path d="M 86 328 L 185 328 L 185 348 L 86 348 Z M 86 328 " clip-rule="nonzero"/></clipPath><clipPath id="f1f385ed40"><path d="M 413.246094 122.363281 L 285.46875 429.058594 L -23.304688 300.414062 L 104.472656 -6.28125 Z M 413.246094 122.363281 " clip-rule="nonzero"/></clipPath><clipPath id="bfedc549db"><path d="M 413.246094 122.363281 L 285.46875 429.058594 L -23.304688 300.414062 L 104.472656 -6.28125 Z M 413.246094 122.363281 " clip-rule="nonzero"/></clipPath></defs><g clip-path="url(#888b662308)"><g clip-path="url(#6cb478d6f3)"><g clip-path="url(#e5112d5be9)"><path fill="#57d1d1" d="M 75.964844 252.59375 C 84.339844 220.839844 111.027344 207.25 151.695312 231.058594 C 186.574219 252.367188 235.050781 259.863281 236.59375 258.164062 C 238.753906 258.359375 246.546875 258.988281 246.832031 258.992188 C 247.203125 259 248.96875 259.070312 249.484375 259.082031 C 273.59375 260.339844 285.023438 255.183594 289.898438 249.582031 C 293.335938 245.636719 293.90625 240.871094 293.015625 234.542969 C 292.066406 227.933594 287.929688 219.269531 278.957031 207.148438 C 271.636719 197.304688 257.355469 182.796875 257.355469 182.796875 C 257.316406 182.75 257.277344 182.707031 257.238281 182.660156 C 256.699219 182.089844 256.128906 181.503906 255.5625 180.921875 C 250.992188 176.210938 245.894531 171.167969 240.242188 165.71875 C 182.882812 110.683594 75.339844 97.886719 110.367188 33.867188 C 143.113281 -25.988281 265.199219 77.785156 300.007812 123.515625 C 334.84375 169.253906 389.035156 253.761719 332.242188 291.742188 C 275.449219 329.722656 187.382812 326.945312 147.660156 318.054688 C 101.535156 307.742188 68.105469 282.425781 75.964844 252.59375 Z M 75.964844 252.59375 " fill-opacity="1" fill-rule="evenodd"/></g></g></g><g clip-path="url(#6970ecc1ea)"><g clip-path="url(#b2e1f1282c)"><g clip-path="url(#3ad11f705e)"><path fill="#ffffff" d="M 175.824219 24.015625 C 175.328125 23.546875 158.847656 17.578125 153.449219 16.308594 C 148.046875 15.042969 146.734375 18.195312 146.734375 18.195312 C 146.734375 18.195312 174.164062 50.902344 199.125 88.28125 C 224.054688 125.667969 233.636719 160.335938 233.636719 160.335938 C 247.128906 171.394531 257.230469 182.6875 257.230469 182.6875 C 257.230469 182.6875 240.042969 82.371094 175.824219 24.015625 Z M 175.824219 24.015625 " fill-opacity="1" fill-rule="evenodd"/></g></g></g><g clip-path="url(#b612063c70)"><g clip-path="url(#cf754afbc3)"><g clip-path="url(#58ee1441ee)"><path fill="#57d1d1" d="M 53.152344 330.320312 C 19.742188 308.710938 0.445312 281.539062 2.636719 245.953125 C 3.234375 239.726562 3.652344 234.699219 8.242188 225.277344 C 12.226562 217.105469 28.316406 195.375 54.113281 207.609375 C 82.324219 220.609375 73.199219 248.058594 67.855469 256.589844 C 63.046875 264.242188 58.917969 268.390625 53.933594 274.667969 C 43.847656 287.351562 34.367188 307.054688 54.601562 324.621094 C 58.890625 328.34375 64.535156 331.246094 71.058594 333.210938 C 92.6875 339.734375 124.164062 336.285156 149.761719 320.089844 C 170.933594 306.675781 188.0625 284.582031 192.15625 252.199219 C 202.707031 168.933594 155.609375 115.773438 125.425781 93.28125 C 95.246094 70.789062 94.613281 35.945312 119.375 20.648438 C 191.210938 -23.671875 280.324219 174.09375 224.421875 288.078125 C 189.863281 358.539062 103.347656 362.796875 53.152344 330.320312 Z M 53.152344 330.320312 " fill-opacity="1" fill-rule="evenodd"/></g></g></g><g clip-path="url(#f7aa0b7542)"><g clip-path="url(#ffd5623bb1)"><g clip-path="url(#f5634f018f)"><path fill="#ffffff" d="M 237.09375 251.695312 C 237.09375 251.695312 225.425781 306.277344 189.085938 329.445312 C 189.085938 329.445312 166.574219 330.535156 144.125 323.347656 C 144.125 323.347656 187.3125 303.871094 193.050781 242.625 C 193.050781 242.625 222.054688 252.050781 237.09375 251.695312 " fill-opacity="1" fill-rule="evenodd"/></g></g></g><g clip-path="url(#fdec1c8122)"><g clip-path="url(#d264b1bf00)"><g clip-path="url(#c1c7f1a8c5)"><path fill="#57d1d1" d="M 236.570312 258.15625 C 236.570312 258.15625 210.167969 255.945312 190.449219 248.105469 C 190.449219 248.105469 185.765625 297.589844 147.0625 317.894531 C 147.0625 317.894531 180.632812 325.171875 201.257812 323.617188 C 201.25 323.640625 231.019531 297.160156 236.570312 258.15625 " fill-opacity="1" fill-rule="evenodd"/></g></g></g><g clip-path="url(#e97c47f1ef)"><g clip-path="url(#54940d6794)"><g clip-path="url(#8af26a2922)"><g mask="url(#9baef15d41)"><g transform="matrix(1, 0, 0, 1, 147, 79)"><g clip-path="url(#451ed02dc4)"><g clip-path="url(#162b840678)"><g clip-path="url(#3fa5145bc6)"><g clip-path="url(#df38cb5ba4)"><path fill="#207bfc" d="M 13.640625 232.117188 C 13.640625 232.117188 29.785156 237.222656 60.859375 237.9375 C 70.875 238.179688 82.476562 237.953125 95.582031 236.964844 C 125.527344 234.699219 189.167969 219.695312 201.863281 189.222656 C 203.042969 186.390625 203.796875 183.40625 204.023438 180.292969 C 210.109375 97.882812 108.226562 6.890625 108.226562 6.890625 C 100.757812 1.292969 93.769531 2.660156 91.09375 9.089844 C 87.765625 17.074219 91.070312 32.878906 108.40625 52.964844 C 137.605469 86.757812 195.019531 147.222656 181.40625 179.890625 C 181.007812 180.851562 180.558594 181.789062 180.035156 182.699219 C 169.339844 201.289062 137.546875 215.21875 113.550781 222.425781 C 102.636719 225.699219 85.199219 227.894531 67.9375 229.363281 C 67.949219 229.347656 13.640625 232.117188 13.640625 232.117188 Z M 144.902344 222.269531 C 144.636719 221.929688 144.597656 221.535156 144.773438 221.117188 C 146.917969 215.96875 179.929688 205.582031 188.367188 186.429688 L 188.726562 185.566406 C 197.082031 165.515625 188.824219 145.710938 174.714844 122.742188 C 160.390625 99.457031 105.917969 45.191406 108.257812 33.820312 C 108.535156 32.460938 108.894531 31.25 109.3125 30.238281 C 112.382812 22.875 119.199219 25.105469 129.574219 36.917969 C 129.574219 36.917969 166.058594 82.589844 183.382812 115.050781 C 197.234375 141 205.566406 165.898438 196.546875 187.550781 C 195.878906 189.152344 195.101562 190.738281 194.242188 192.316406 C 185.355469 208.449219 148.394531 226.933594 144.902344 222.269531 Z M 144.902344 222.269531 " fill-opacity="1" fill-rule="nonzero"/></g></g></g></g></g></g></g></g></g><g clip-path="url(#84626dada7)"><g clip-path="url(#a16be8f77f)"><g clip-path="url(#f1be84a6ce)"><path fill="#207bfc" d="M 343.53125 266.519531 C 352.542969 244.890625 344.21875 219.96875 330.367188 194.019531 C 313.042969 161.558594 276.558594 115.886719 276.558594 115.886719 C 266.1875 104.074219 259.367188 101.839844 256.296875 109.207031 C 255.878906 110.21875 255.527344 111.402344 255.242188 112.785156 C 252.929688 124.167969 307.375 178.425781 321.699219 201.710938 C 335.84375 224.664062 344.066406 244.480469 335.710938 264.535156 L 335.355469 265.398438 C 326.902344 284.574219 293.894531 294.960938 291.757812 300.085938 C 291.582031 300.503906 291.621094 300.898438 291.886719 301.238281 C 295.378906 305.902344 332.339844 287.414062 341.226562 271.285156 C 342.101562 269.742188 342.851562 268.144531 343.53125 266.519531 " fill-opacity="1" fill-rule="nonzero"/></g></g></g><g clip-path="url(#c48f8001fd)"><g clip-path="url(#54057f5025)"><g clip-path="url(#920e660abe)"><g mask="url(#13184ef20e)"><g transform="matrix(1, 0, 0, 1, 138, 224)"><g clip-path="url(#61c8ca4f95)"><g clip-path="url(#e2224af9a0)"><g clip-path="url(#31baf361f6)"><g clip-path="url(#a2ca69a6d5)"><path fill="#ffffff" d="M 1.4375 0.742188 C 3.839844 1.917969 6.308594 3.144531 8.8125 4.421875 C 6.609375 3.183594 4.128906 1.921875 1.4375 0.742188 Z M 54.441406 24.878906 C 54.449219 24.859375 54.445312 24.839844 54.4375 24.816406 C 53.835938 24.597656 53.234375 24.375 52.621094 24.175781 C 53.214844 24.425781 53.816406 24.644531 54.441406 24.878906 Z M 54.441406 24.878906 " fill-opacity="1" fill-rule="nonzero"/></g></g></g></g></g></g></g></g></g><g clip-path="url(#cfd5c98191)"><g clip-path="url(#6c76f225dd)"><g clip-path="url(#bfa1a27b2c)"><g mask="url(#b87f9088ee)"><g transform="matrix(1, 0, 0, 1, 192, 240)"><g clip-path="url(#443ef39640)"><g clip-path="url(#8dcc20a2ca)"><g clip-path="url(#ec8880610f)"><g clip-path="url(#16e821e7a7)"><path fill="#ffffff" d="M 9.949219 11.941406 C 6.835938 11.019531 3.652344 9.984375 0.425781 8.84375 L 0.40625 8.890625 C 3.511719 10.042969 6.714844 11.027344 9.949219 11.941406 M 43.453125 18.066406 L 43.480469 17.992188 C 43.511719 17.917969 43.519531 17.832031 43.550781 17.757812 C 39.210938 17.28125 34.445312 16.710938 29.191406 16.140625 C 29.105469 16.136719 29.046875 16.140625 28.972656 16.109375 C 35.785156 17.242188 41.210938 17.824219 43.453125 18.066406 " fill-opacity="1" fill-rule="nonzero"/></g></g></g></g></g></g></g></g></g><g clip-path="url(#a1510e9c0a)"><g clip-path="url(#1225c9a8a0)"><g clip-path="url(#67b898d5e8)"><g mask="url(#20f92d4d7b)"><g transform="matrix(1, 0, 0, 1, 61, 90)"><g clip-path="url(#8ef0838b6b)"><g clip-path="url(#32813046e1)"><g clip-path="url(#e25e2b4688)"><g clip-path="url(#4c21879928)"><path fill="#ffffff" d="M 31.453125 203.378906 C 24.546875 197.609375 19.414062 191.191406 16.535156 184.296875 C 15.703125 182.273438 15.058594 180.210938 14.589844 178.136719 C 13.492188 173.140625 13.585938 167.917969 15 162.582031 C 15.765625 159.632812 16.714844 156.875 17.800781 154.265625 C 19.402344 150.421875 21.339844 146.949219 23.59375 143.898438 C 25.148438 141.972656 26.726562 139.984375 28.660156 138.1875 C 30.851562 136.125 33.347656 134.574219 35.707031 133.214844 C 44.058594 128.714844 54.484375 127.566406 66.785156 130.582031 C 70.90625 131.660156 74.859375 133.136719 78.449219 134.71875 C 80.851562 135.890625 83.316406 137.121094 85.820312 138.398438 C 99.832031 145.503906 115.242188 153.691406 129.449219 158.105469 L 129.621094 158.175781 C 130.214844 158.425781 130.816406 158.644531 131.441406 158.878906 C 134.523438 160.015625 137.71875 161.089844 140.949219 161.941406 C 148.03125 163.824219 154.144531 165.242188 159.972656 166.109375 C 163.375 166.6875 166.457031 167.132812 168.929688 167.441406 C 171.425781 167.757812 173.332031 167.976562 174.453125 168.066406 C 175.175781 168.136719 177.582031 168.328125 177.570312 168.351562 C 261.171875 176.152344 234.074219 130.164062 196.214844 92.652344 C 196.050781 91.859375 190.300781 66.042969 182.316406 43.289062 C 182.316406 43.289062 235.09375 104.398438 247.609375 123.632812 C 260.726562 143.292969 265.105469 163.101562 245.003906 176.382812 C 229.300781 187.070312 200.394531 188.933594 171.929688 183.898438 C 162.558594 182.25 153.214844 179.832031 144.433594 176.753906 C 138.683594 174.734375 132.929688 172.304688 127.316406 169.679688 C 115.113281 163.929688 103.644531 157.097656 94.597656 150.988281 C 83.882812 143.746094 70.273438 141.921875 58.195312 146.546875 C 53.417969 148.375 49.027344 151.140625 45.589844 155.230469 C 43.695312 157.476562 42.203125 159.949219 41.128906 162.535156 C 34.671875 178.03125 42.28125 198.144531 56.914062 206.527344 C 69.945312 213.980469 82.566406 219.355469 93.816406 223.230469 C 119.320312 232.035156 137.800781 233.691406 137.757812 233.789062 L 135.730469 233.871094 C 129.59375 234.234375 123.269531 233.59375 116.753906 233.132812 C 110.261719 232.683594 89.371094 228.695312 86.226562 227.992188 C 65.636719 223.34375 46.296875 215.289062 31.453125 203.378906 Z M 31.453125 203.378906 " fill-opacity="1" fill-rule="nonzero"/></g></g></g></g></g></g></g></g></g><g clip-path="url(#c4a264641c)"><g clip-path="url(#d42de80e82)"><g clip-path="url(#f487448df8)"><g mask="url(#739a869bfd)"><g transform="matrix(1, 0, 0, 1, 67, 20)"><g clip-path="url(#7717a5a767)"><g clip-path="url(#539ba4a1c3)"><g clip-path="url(#cb167918a5)"><g clip-path="url(#3515aa6c37)"><path fill="#ffffff" d="M 137.425781 225.71875 C 152.171875 133.355469 96.296875 74.402344 83.003906 55.792969 C 76.777344 47.070312 75.015625 38.328125 77.570312 32.191406 C 80.464844 25.246094 88.925781 21.65625 102.792969 25.296875 C 128.855469 32.136719 149.84375 68.230469 149.84375 68.230469 C 149.84375 68.230469 135.128906 36.019531 127.28125 29.253906 C 119.421875 22.507812 110.472656 15.253906 98.132812 12.050781 C 84.964844 8.617188 68.199219 11.519531 61.804688 25.621094 C 61.636719 26.015625 61.460938 26.375 61.304688 26.746094 C 49.480469 55.125 80.382812 69.648438 99.90625 104.121094 C 114.554688 130.03125 120.257812 161.722656 120.257812 161.722656 C 120.257812 161.722656 118.441406 154.980469 114.761719 145.902344 C 115.253906 147.292969 115.75 148.742188 116.234375 150.214844 C 123.949219 170.835938 128.25 195.003906 126.113281 222.683594 C 126.214844 222.722656 126.445312 222.789062 126.777344 222.898438 L 137.425781 225.71875 " fill-opacity="1" fill-rule="nonzero"/></g></g></g></g></g></g></g></g></g><g clip-path="url(#8088db8569)"><g clip-path="url(#aad549f578)"><g clip-path="url(#57fa6aa70c)"><g mask="url(#23d7b3842a)"><g transform="matrix(1, 0, 0, 1, 192, 242)"><g clip-path="url(#371c5e61ba)"><g clip-path="url(#bdca26d486)"><g clip-path="url(#889236e423)"><g clip-path="url(#17d46ca350)"><path fill="#ffffff" d="M 1.785156 0.875 C 1.429688 0.753906 1.199219 0.6875 1.125 0.65625 L 1.074219 0.636719 L 1.066406 0.660156 L 1.785156 0.875 " fill-opacity="1" fill-rule="nonzero"/></g></g></g></g></g></g></g></g></g><g clip-path="url(#e46ad59b12)"><g clip-path="url(#ad3811882d)"><g clip-path="url(#a670cd64fe)"><path fill="#89868e" d="M 104.96875 67.988281 C 102.605469 62.144531 101.539062 56.238281 101.71875 50.53125 C 101.3125 56.78125 102.664062 62.632812 104.96875 67.988281 M 128.925781 16.183594 C 124.960938 17.367188 121.222656 19.191406 117.828125 21.652344 C 118.308594 21.332031 123.097656 18.09375 128.925781 16.183594 M 130.957031 97.636719 C 129.054688 96.09375 127.207031 94.628906 125.390625 93.296875 C 124.800781 92.84375 124.207031 92.394531 123.621094 91.921875 C 126.710938 94.566406 129.371094 96.515625 130.957031 97.636719 M 167.945312 139.53125 C 162.019531 130.152344 155.554688 121.9375 149.046875 114.800781 C 154.722656 121.15625 161.347656 129.410156 167.945312 139.53125 " fill-opacity="1" fill-rule="nonzero"/></g></g></g><g clip-path="url(#5d505df93e)"><g clip-path="url(#28bc67d7cc)"><g clip-path="url(#eb39964813)"><g mask="url(#a22b488fbd)"><g transform="matrix(1, 0, 0, 1, 159, 21)"><g clip-path="url(#1be46d15ce)"><g clip-path="url(#6a4a64e622)"><g clip-path="url(#450cd10648)"><g clip-path="url(#cd5c77c1a5)"><path fill="#ffffff" d="M 9.671875 2.835938 C 8.390625 1.957031 7.101562 1.160156 5.804688 0.386719 C 7.101562 1.160156 8.378906 1.980469 9.671875 2.835938 M 34.230469 26.890625 C 32.230469 23.917969 26.972656 16.898438 17.671875 9.03125 C 23.394531 13.960938 28.945312 20.003906 34.230469 26.890625 " fill-opacity="1" fill-rule="nonzero"/></g></g></g></g></g></g></g></g></g><g clip-path="url(#b9c1bbe54e)"><g clip-path="url(#e6ac6cce95)"><g clip-path="url(#2c6e6d8658)"><g mask="url(#35e2710a9d)"><g transform="matrix(1, 0, 0, 1, 65, 0)"><g clip-path="url(#1463cf9760)"><g clip-path="url(#69f483f341)"><g clip-path="url(#8f1fc1fa5a)"><g clip-path="url(#58d2ed3bac)"><path fill="#ffffff" d="M 122.207031 181.703125 C 122.148438 181.503906 120.332031 174.820312 116.714844 165.882812 C 114.128906 159.457031 110.589844 151.851562 106.152344 144.597656 C 105.085938 142.851562 104 141.15625 102.945312 139.53125 C 97.046875 130.164062 90.554688 121.9375 84.046875 114.800781 C 74.476562 104.109375 67.535156 98.699219 67.535156 98.699219 C 67.535156 98.699219 66.960938 98.34375 65.957031 97.636719 C 64.066406 96.070312 62.207031 94.628906 60.390625 93.296875 C 59.800781 92.84375 59.207031 92.394531 58.621094 91.921875 C 52.363281 86.539062 44.773438 79.945312 39.96875 67.988281 C 37.605469 62.144531 36.515625 56.226562 36.71875 50.53125 C 36.953125 46.78125 37.417969 42.585938 39.078125 38.59375 C 39.253906 38.175781 39.429688 37.757812 39.636719 37.324219 C 42.777344 30.480469 47.003906 25.507812 52.820312 21.675781 C 53.308594 21.332031 53.824219 20.996094 54.363281 20.671875 C 57.519531 18.71875 60.253906 17.226562 63.914062 16.207031 C 67.023438 15.335938 70.867188 14.160156 75.121094 14.226562 C 86.929688 14.40625 101.601562 18.667969 110.273438 23.667969 C 111.582031 24.417969 102.371094 23.007812 103.660156 23.863281 C 104.113281 24.167969 104.867188 24.363281 105.308594 24.695312 C 107.726562 26.453125 109.816406 28.101562 111.847656 29.816406 C 117.5625 34.769531 122.945312 41.003906 128.230469 47.890625 C 128.863281 48.730469 129.226562 49.171875 129.257812 49.242188 C 129.152344 49.140625 128.304688 48.46875 126.953125 47.273438 C 122.644531 43.394531 112.464844 35.277344 100.109375 32.039062 C 86.9375 28.605469 70.175781 31.507812 63.777344 45.613281 C 63.625 45.980469 63.433594 46.367188 63.28125 46.734375 C 51.46875 75.089844 82.355469 89.636719 101.878906 124.109375 C 116.417969 149.800781 122.1875 181.203125 122.207031 181.703125 Z M 122.207031 181.703125 " fill-opacity="1" fill-rule="nonzero"/></g></g></g></g></g></g></g></g></g><g clip-path="url(#22326a2cea)"><g clip-path="url(#6a5a344d50)"><g clip-path="url(#9e2bfab81b)"><g mask="url(#9230797599)"><g transform="matrix(1, 0, 0, 1, 105, 50)"><g clip-path="url(#f529db1fc6)"><g clip-path="url(#0a070870e3)"><g clip-path="url(#fbd83f30eb)"><g clip-path="url(#f75d48430d)"><path fill="#207bfc" d="M 111.511719 168.167969 C 113.816406 150.074219 109.582031 120.960938 100.722656 93.996094 C 93.363281 71.617188 80.488281 57.203125 70.105469 45.621094 C 65.011719 39.941406 60.617188 35.015625 57.792969 30.136719 C 54.203125 23.902344 53.59375 18.152344 55.902344 12.609375 C 56.25 11.773438 56.660156 10.929688 57.140625 10.121094 C 59.269531 6.46875 62.558594 4.339844 66.332031 4.089844 C 76.515625 3.445312 87.46875 16.511719 97.808594 29.925781 L 98.503906 30.824219 C 105.230469 39.523438 112.816406 54.769531 118.859375 71.628906 C 124.164062 86.441406 130.746094 109.511719 131.941406 135.304688 C 132.027344 137.453125 132.164062 139.621094 132.273438 141.71875 C 133.117188 156.902344 133.984375 172.585938 127.761719 187.804688 L 127.691406 187.976562 C 124.394531 195.886719 119.5625 195.546875 117.636719 195.035156 C 111.527344 193.386719 109.457031 184.34375 111.511719 168.167969 Z M 111.511719 168.167969 " fill-opacity="1" fill-rule="nonzero"/></g></g></g></g></g></g></g></g></g><g clip-path="url(#16b283e046)"><g clip-path="url(#60fa0e9102)"><g clip-path="url(#282fdf001f)"><g mask="url(#1906ca9207)"><g transform="matrix(1, 0, 0, 1, 114, 58)"><g clip-path="url(#7e90e35d22)"><g clip-path="url(#2fcf915ff1)"><g clip-path="url(#bd40bef1af)"><g clip-path="url(#24a3c59acc)"><path fill="#207bfc" d="M 115.929688 178.972656 L 115.988281 178.824219 C 122.546875 162.734375 120.578125 145.953125 119.753906 128.636719 C 117.679688 83.855469 98.566406 41.601562 87.441406 27.222656 C 80.148438 17.796875 62.148438 -6.238281 54.984375 5.953125 C 54.609375 6.578125 54.328125 7.183594 54.074219 7.800781 C 46.734375 25.414062 84.058594 39.78125 99.042969 85.429688 C 107.476562 111.121094 112.644531 141.605469 110.054688 161.980469 C 107.550781 181.726562 112.242188 187.816406 115.929688 178.972656 " fill-opacity="1" fill-rule="nonzero"/></g></g></g></g></g></g></g></g></g><g clip-path="url(#84aa6603ea)"><g clip-path="url(#b13208131f)"><g clip-path="url(#6430576c7e)"><g mask="url(#b48a197752)"><g transform="matrix(1, 0, 0, 1, 96, 229)"><g clip-path="url(#d00b2f105b)"><g clip-path="url(#6e18c2e360)"><g clip-path="url(#5c7d4cd48c)"><g clip-path="url(#29fafbd472)"><path fill="#207bfc" d="M 29.5625 64.238281 C 10.589844 54.046875 6.421875 38.722656 11.285156 27.046875 C 16.152344 15.367188 28.75 8.097656 44.859375 11.136719 C 51.9375 12.46875 68.574219 22.578125 91.34375 34.40625 C 103.417969 40.679688 117.257812 47.429688 132.28125 53.632812 C 132.699219 53.804688 133.09375 53.96875 133.453125 54.148438 C 136.105469 55.484375 136.949219 56.933594 136.320312 58.4375 C 135.601562 60.160156 132.925781 61.9375 128.878906 63.605469 C 117.265625 68.367188 94.152344 72.355469 71.902344 72.25 C 55.78125 72.152344 40.097656 69.898438 29.5625 64.238281 Z M 29.5625 64.238281 " fill-opacity="1" fill-rule="nonzero"/></g></g></g></g></g></g></g></g></g><g clip-path="url(#61877fb59a)"><g clip-path="url(#04e2f9646a)"><g clip-path="url(#b92fb1db26)"><g mask="url(#e82502ffa7)"><g transform="matrix(1, 0, 0, 1, 104, 246)"><g clip-path="url(#9cb7c7098f)"><g clip-path="url(#6bc64d7c03)"><g clip-path="url(#05b61d9066)"><g clip-path="url(#4cdad6878a)"><path fill="#207bfc" d="M 69.875 38.625 C 69.875 38.625 57.339844 37.074219 39.566406 25.390625 C 32.511719 20.746094 30.78125 10.050781 24.667969 5.914062 C 18.316406 1.589844 12.535156 4.847656 9.917969 11.132812 C 6.488281 19.359375 8.554688 32.796875 22.125 41.023438 C 40.007812 51.886719 58.667969 51.304688 69.113281 48.226562 C 70.730469 47.742188 72.128906 46.679688 72.972656 45.207031 C 72.996094 45.160156 73.039062 45.121094 73.058594 45.070312 C 74.34375 42.886719 73.410156 40.070312 71.066406 39.09375 Z M 69.875 38.625 " fill-opacity="1" fill-rule="nonzero"/></g></g></g></g></g></g></g></g></g><g clip-path="url(#22424291e9)"><g clip-path="url(#334d5ab020)"><g clip-path="url(#2122e2f8e5)"><path fill="#57d1d1" d="M 41.625 204.140625 C 32.222656 202.765625 20.355469 208 12.066406 218.945312 C 10.34375 221.347656 9.085938 223.601562 8.269531 225.285156 C 7.589844 226.707031 6.988281 228.015625 6.460938 229.273438 C 4.964844 232.871094 4.136719 235.761719 3.617188 238.464844 C 4.34375 235.328125 5.289062 232.371094 6.417969 229.660156 C 13.890625 211.722656 29.515625 202.738281 41.625 204.140625 " fill-opacity="1" fill-rule="nonzero"/></g></g></g><g clip-path="url(#a94bfd4d4b)"><g clip-path="url(#5d85fe22f8)"><g clip-path="url(#3a43276f65)"><g mask="url(#fde79372b0)"><g transform="matrix(1, 0, 0, 1, 0, 198)"><g clip-path="url(#3d8fe79435)"><g clip-path="url(#56df8ab514)"><g clip-path="url(#6aabd6c06d)"><g clip-path="url(#03d0689b17)"><path fill="#ffffff" d="M 57.988281 11.628906 C 56.777344 10.921875 55.488281 10.269531 54.113281 9.609375 C 51.789062 8.527344 49.558594 7.710938 47.398438 7.132812 C 45.601562 6.730469 43.6875 6.394531 41.613281 6.167969 C 48.621094 7.179688 54.023438 9.34375 57.988281 11.628906 M 73.0625 142.550781 C 52.105469 131.855469 25.851562 106.804688 18.917969 74.800781 C 17.976562 64.636719 19.695312 54.542969 23.289062 45.917969 C 30.554688 28.476562 45.5625 16.949219 62.140625 22.613281 C 73.425781 26.476562 73.585938 36.921875 73.585938 36.921875 C 73.585938 36.921875 73.722656 33.539062 72.414062 28.972656 C 71.277344 25.117188 69.242188 21.320312 66.027344 17.871094 C 66.761719 18.667969 67.097656 19.183594 67.097656 19.183594 C 67.097656 19.183594 38.699219 1.714844 18.464844 37.722656 C 18.121094 38.332031 17.8125 39.011719 17.503906 39.75 C 14.167969 47.757812 12.550781 63.160156 13.199219 70.484375 C 15.503906 96.453125 32.75 116.617188 42.09375 124.242188 L 53.128906 132.308594 C 53.050781 132.597656 65.902344 140.085938 73.0625 142.550781 " fill-opacity="1" fill-rule="nonzero"/></g></g></g></g></g></g></g></g></g><g clip-path="url(#3cef9c0a50)"><g clip-path="url(#dcaf9ee09f)"><g clip-path="url(#f1794e5b61)"><path fill="#197358" d="M 66.015625 215.890625 C 64.683594 214.441406 62.097656 211.976562 57.988281 209.625 C 61.253906 211.507812 63.898438 213.621094 66.015625 215.890625 " fill-opacity="1" fill-rule="nonzero"/></g></g></g><g clip-path="url(#2e77fcb269)"><g clip-path="url(#2f115beffc)"><g clip-path="url(#d87b689b2f)"><g mask="url(#0fa163f563)"><g transform="matrix(1, 0, 0, 1, 0, 193)"><g clip-path="url(#b1dd16542c)"><g clip-path="url(#796047c529)"><g clip-path="url(#8b879f0a27)"><g clip-path="url(#03c4535a69)"><path fill="#ffffff" d="M 42.105469 129.277344 C 32.738281 121.644531 15.496094 101.476562 13.214844 75.519531 C 12.574219 68.167969 14.179688 52.792969 17.515625 44.785156 C 17.824219 44.046875 18.136719 43.367188 18.476562 42.757812 C 38.6875 6.738281 67.113281 24.21875 67.113281 24.21875 C 67.113281 24.21875 66.765625 23.726562 66.039062 22.90625 C 63.921875 20.632812 61.277344 18.519531 58.011719 16.640625 C 54.039062 14.378906 48.648438 12.1875 41.613281 11.167969 C 29.503906 9.765625 13.933594 17.5 6.296875 36.554688 C 5.195312 39.304688 4.34375 42.332031 3.613281 45.46875 C 3.132812 48.015625 2.902344 50.375 2.660156 52.964844 C 2.003906 59.746094 2.238281 66.261719 3.3125 72.492188 C 10.449219 108.453125 42.105469 129.277344 42.105469 129.277344 Z M 42.105469 129.277344 " fill-opacity="1" fill-rule="nonzero"/></g></g></g></g></g></g></g></g></g><g clip-path="url(#c019573954)"><g clip-path="url(#c7efa0870a)"><g clip-path="url(#6884a3ba9e)"><g mask="url(#eba0219537)"><g transform="matrix(1, 0, 0, 1, 15, 224)"><g clip-path="url(#d75c5a8669)"><g clip-path="url(#e15016be1f)"><g clip-path="url(#2e157954ab)"><g clip-path="url(#1081dc2af9)"><path fill="#207bfc" d="M 25.957031 84.523438 C 25.957031 84.523438 21.097656 68.910156 27.007812 54.71875 L 27.019531 54.695312 C 31.546875 43.832031 37.882812 40.832031 42.878906 35.367188 C 46.070312 31.871094 49.242188 27.726562 51.027344 23.441406 C 53.050781 18.585938 53.300781 13.542969 49.851562 8.984375 C 45.15625 2.835938 28.695312 7.023438 19.867188 28.210938 C 19.386719 29.367188 18.933594 30.597656 18.484375 31.882812 C 12.582031 49.027344 15.332031 68.734375 25.957031 84.523438 " fill-opacity="1" fill-rule="nonzero"/></g></g></g></g></g></g></g></g></g><g clip-path="url(#78c3e519e3)"><g clip-path="url(#ae5a5ab1b3)"><g clip-path="url(#1f79e510be)"><g mask="url(#4310687ced)"><g transform="matrix(1, 0, 0, 1, 35, 234)"><g clip-path="url(#458a714f36)"><g clip-path="url(#db993e73a3)"><g clip-path="url(#99182ad837)"><g clip-path="url(#64c2df4439)"><path fill="#207bfc" d="M 8.140625 31.113281 C 8.140625 31.113281 9.707031 25.550781 15.617188 17.75 C 17.976562 14.65625 22.28125 13.960938 24.371094 11.304688 C 26.546875 8.511719 25.699219 5.902344 23.460938 4.679688 C 20.488281 3.066406 15.089844 3.882812 10.8125 9.847656 C 5.191406 17.714844 4.019531 26.015625 4.4375 30.699219 C 4.511719 31.421875 4.828125 32.046875 5.324219 32.457031 C 5.347656 32.464844 5.375 32.476562 5.363281 32.5 C 6.125 33.105469 7.304688 32.703125 7.855469 31.660156 Z M 8.140625 31.113281 " fill-opacity="1" fill-rule="nonzero"/></g></g></g></g></g></g></g></g></g><g clip-path="url(#1ebef9e4c2)"><g clip-path="url(#3908ac5010)"><g clip-path="url(#c5b9dff36a)"><g mask="url(#65944decc4)"><g transform="matrix(1, 0, 0, 1, 70, 291)"><g clip-path="url(#35ae2175c0)"><g clip-path="url(#8033a869f0)"><g clip-path="url(#00547e8e3a)"><g clip-path="url(#5db9fe5d8f)"><path fill="#ffffff" d="M 1.0625 42.210938 C 22.6875 48.734375 54.164062 45.28125 79.761719 29.085938 L 95.058594 32.277344 C 67.746094 47.585938 34.230469 57.878906 1.0625 42.210938 Z M 1.0625 42.210938 " fill-opacity="1" fill-rule="nonzero"/></g></g></g></g></g></g></g></g></g><g clip-path="url(#20dfa6578e)"><g clip-path="url(#f1f385ed40)"><g clip-path="url(#bfedc549db)"><path fill="#207bfc" d="M 184.175781 329.511719 C 184.980469 329.933594 138.808594 358.804688 86.789062 343.410156 C 138.332031 351.757812 164.738281 334.25 170.699219 328.753906 C 175.40625 329.324219 180 329.535156 184.175781 329.511719 Z M 184.175781 329.511719 " fill-opacity="1" fill-rule="evenodd"/></g></g></g></svg>